<svg width="144" height="8" viewBox="0 0 144 8" fill="none" xmlns="http://www.w3.org/2000/svg">
<path d="M2 6L7.53948 3.46327C10.9354 1.90814 14.8575 1.99891 18.1779 3.7095V3.7095C21.0263 5.17693 24.3385 5.46158 27.3956 4.50164L29.7146 3.77344C33.0064 2.73975 36.5254 2.66954 39.8558 3.57111L42.1719 4.19808C46.5284 5.37739 51.1227 5.35675 55.4685 4.13834L55.8021 4.04478C60.1233 2.83325 64.6989 2.86677 69.0019 4.14149V4.14149C73.1083 5.35798 77.4667 5.44511 81.6185 4.39373L83.2144 3.98959C87.8708 2.81043 92.7536 2.86112 97.3845 4.13669V4.13669C101.824 5.35962 106.499 5.45749 110.986 4.42147L115.873 3.29303C118.986 2.57437 122.242 2.80071 125.225 3.9431V3.9431C128.698 5.27297 132.524 5.35586 136.052 4.17761L142 2.19048" stroke="white" stroke-width="3" stroke-linecap="round"/>
</svg>
