<svg width="196" height="14" viewBox="0 0 196 14" fill="none" xmlns="http://www.w3.org/2000/svg">
<path d="M3 11L10.3664 6.02874C14.8218 3.02204 20.697 3.18577 24.978 6.43593V6.43593C28.6771 9.24432 33.6246 9.78064 37.8396 7.83013L40.585 6.55968C44.9699 4.53054 49.9965 4.39521 54.4843 6.18549L57.4964 7.38711C63.3038 9.70386 69.7858 9.66422 75.5645 7.27661L75.9778 7.10583C81.7388 4.72552 88.22 4.78972 93.9327 7.28369V7.28369C99.3929 9.6674 105.566 9.83547 111.148 7.75239L113.164 6.99996C119.401 4.67243 126.284 4.77026 132.452 7.27407V7.27407C138.372 9.67727 144.96 9.86715 151.009 7.80896L157.288 5.67263C161.573 4.21455 166.276 4.6528 170.218 6.87743V6.87743C174.79 9.45718 180.34 9.61352 185.049 7.29518L193 3.38095" stroke="white" stroke-width="6" stroke-linecap="round"/>
</svg>
