<svg width="295" height="15" viewBox="0 0 295 15" fill="none" xmlns="http://www.w3.org/2000/svg">
<path d="M3 11.5L14.4062 6.17709C21.3965 2.91494 29.5093 3.1049 36.3393 6.69063V6.69063C42.1999 9.76743 49.05 10.364 55.3542 8.34666L61.9911 6.22285C67.5432 4.44617 73.4927 4.32557 79.1122 5.87579L91.3798 9.25996C96.6906 10.725 102.302 10.6994 107.599 9.1859L119.026 5.92125C124.558 4.34049 130.429 4.38418 135.937 6.04714L145.963 9.07365C151.22 10.6607 156.812 10.7744 162.129 9.40214L177.176 5.51915C182.301 4.19662 187.684 4.25343 192.78 5.68381L206.052 9.40924C210.937 10.7806 216.091 10.8904 221.031 9.72811L238.416 5.6374C244.332 4.24536 250.532 4.68308 256.194 6.89259L257.795 7.51774C264.386 10.0895 271.673 10.2497 278.37 7.96991L291.5 3.5" stroke="white" stroke-width="6" stroke-linecap="round"/>
</svg>
