<svg width="244" height="14" viewBox="0 0 244 14" fill="none" xmlns="http://www.w3.org/2000/svg">
<path d="M3 11L12.347 5.96434C18.0561 2.88854 24.9667 3.06384 30.5125 6.42514V6.42514C35.2818 9.31573 41.1088 9.87394 46.34 7.94137L50.1021 6.55155C55.664 4.49682 61.7528 4.3581 67.4025 6.15738L73.3424 8.04905C79.3654 9.96722 85.8404 9.9339 91.8434 7.95384L96.0445 6.56812C102.311 4.50116 109.084 4.55787 115.315 6.72945L118.417 7.81066C124.367 9.88414 130.818 10.0319 136.856 8.23299L144.202 6.04441C150.025 4.30973 156.237 4.38375 162.016 6.25666L168.158 8.24714C173.702 10.0434 179.648 10.1866 185.271 8.65914L196.474 5.61597C201.793 4.17099 207.45 4.61892 212.476 6.88314V6.88314C218.319 9.51558 224.977 9.67816 230.942 7.33401L241 3.38095" stroke="white" stroke-width="6" stroke-linecap="round"/>
</svg>
